HIERARCHY
ROOT Hips
{
	OFFSET -3.958830 18.904000 13.208200
	CHANNELS 6 Xposition Yposition Zposition Zrotation Yrotation Xrotation 
	JOINT LHipJoint
	{
		OFFSET 0.000000 0.000000 0.000000
		CHANNELS 3 Zrotation Yrotation Xrotation
		JOINT LeftUpLeg
		{
			OFFSET 1.800000 -1.400000 0.085000
			CHANNELS 3 Zrotation Yrotation Xrotation
			JOINT LeftLeg
			{
				OFFSET 2.215000 -6.000000 0.000000
				CHANNELS 3 Zrotation Yrotation Xrotation
				JOINT LeftFoot
				{
					OFFSET 2.500000 -6.900000 0.000000
					CHANNELS 3 Zrotation Yrotation Xrotation
					JOINT LeftToeBase
					{
						OFFSET 0.200000 -0.500000 1.950000
						CHANNELS 3 Zrotation Yrotation Xrotation
						End Site
						{
							OFFSET 0.000000 0.000000 0.000000
						}
					}
				}
			}
		}
	}
	JOINT RHipJoint
	{
		OFFSET 0.000000 0.000000 0.000000
		CHANNELS 3 Zrotation Yrotation Xrotation
		JOINT RightUpLeg
		{
			OFFSET -1.800000 -1.400000 0.085000
			CHANNELS 3 Zrotation Yrotation Xrotation
			JOINT RightLeg
			{
				OFFSET -2.215000 -6.000000 0.000000
				CHANNELS 3 Zrotation Yrotation Xrotation
				JOINT RightFoot
				{
					OFFSET -2.500000 -6.900000 0.000000
					CHANNELS 3 Zrotation Yrotation Xrotation
					JOINT RightToeBase
					{
						OFFSET -0.200000 -0.500000 1.950000
						CHANNELS 3 Zrotation Yrotation Xrotation
						End Site
						{
							OFFSET 0.000000 0.000000 0.000000
						}
					}
				}
			}
		}
	}
	JOINT LowerBack
	{
		OFFSET 0.000000 0.000000 0.000000
		CHANNELS 3 Zrotation Yrotation Xrotation
		JOINT Spine
		{
			OFFSET -0.087000 1.940000 -0.288900
			CHANNELS 3 Zrotation Yrotation Xrotation
			JOINT Spine1
			{
				OFFSET 0.000000 1.950000 0.060000
				CHANNELS 3 Zrotation Yrotation Xrotation
				JOINT Neck
				{
					OFFSET 0.000000 0.000000 0.000000
					CHANNELS 3 Zrotation Yrotation Xrotation
					JOINT Neck1
					{
						OFFSET 0.000000 1.600000 0.340000
						CHANNELS 3 Zrotation Yrotation Xrotation
						JOINT Head
						{
							OFFSET 0.000000 1.667000 -0.240000
							CHANNELS 3 Zrotation Yrotation Xrotation
							End Site
							{
								OFFSET 0.000000 0.000000 0.000000
							}
						}
					}
				}
				JOINT LeftShoulder
				{
					OFFSET 0.000000 0.000000 0.000000
					CHANNELS 3 Zrotation Yrotation Xrotation
					JOINT LeftArm
					{
						OFFSET 2.700000 1.550000 -0.730000
						CHANNELS 3 Zrotation Yrotation Xrotation
						JOINT LeftForeArm
						{
							OFFSET 5.450000 0.000000 0.000000
							CHANNELS 3 Zrotation Yrotation Xrotation
							JOINT LeftHand
							{
								OFFSET 3.450000 0.000000 0.000000
								CHANNELS 3 Zrotation Yrotation Xrotation
								JOINT LeftHandIndex1
								{
									OFFSET 0.750000 0.000000 0.000000
									CHANNELS 3 Zrotation Yrotation Xrotation
									End Site
									{
										OFFSET 0.000000 0.000000 0.000000
									}
								}
							}
						}
					}
				}
				JOINT RightShoulder
				{
					OFFSET 0.000000 0.000000 0.000000
					CHANNELS 3 Zrotation Yrotation Xrotation
					JOINT RightArm
					{
						OFFSET -2.700000 1.550000 -0.730000
						CHANNELS 3 Zrotation Yrotation Xrotation
						JOINT RightForeArm
						{
							OFFSET -5.450000 0.000000 0.000000
							CHANNELS 3 Zrotation Yrotation Xrotation
							JOINT RightHand
							{
								OFFSET -3.450000 0.000000 0.000000
								CHANNELS 3 Zrotation Yrotation Xrotation
								JOINT RightHandIndex1
								{
									OFFSET -0.750000 0.000000 0.000000
									CHANNELS 3 Zrotation Yrotation Xrotation
									End Site
									{
										OFFSET 0.000000 0.000000 0.000000
									}
								}
							}
						}
					}
				}
			}
		}
	}
}
MOTION
Frames: 10
Frame Time: 0.016667
3.494740 16.001270 -1.165910 2.960207 3.893793 -18.728068 -15.361669 14.703120 4.143821 10.489988 -7.953060 24.586785 -14.672799 12.381459 22.154896 0.627044 9.312286 1.520119 0.127190 -0.228830 0.213880 17.929247 -10.240082 2.156772 16.609254 -7.173314 -30.180801 -38.578674 1.026055 27.346116 -1.178018 -5.554483 2.406786 -0.175280 0.110290 0.187740 -2.884304 -6.088873 -8.145005 -5.411847 -17.487618 36.206666 0.681342 -19.459064 -13.819815 3.583789 -3.410256 -17.233499 -28.490249 20.408131 54.107375 0.224800 10.699610 -20.358780 -17.390418 -14.690458 4.343169 -4.606027 -17.563805 -2.044835 16.573888 -12.621088 -2.407248 -3.745402 2.294654 1.187190 -0.217680 0.385410 0.094070 14.087487 6.982012 9.735562 25.942323 -28.875251 -8.439162 -25.035338 13.962100 0.180670 2.432564 -0.849008 -0.413520 0.456980 0.199990 -0.295060 
3.471770 16.002950 -1.066230 2.747589 7.371617 -16.483208 -15.380485 14.900496 3.969338 11.406044 -7.634552 21.289961 -12.147454 11.747846 24.025475 0.544135 8.921353 1.624564 0.157740 -0.188730 0.224540 17.852797 -10.290309 2.315609 15.445674 -5.835591 -31.789579 -37.547491 1.814329 30.500615 -1.208316 -5.737983 2.341296 -0.175790 0.074360 0.190670 -2.822642 -6.175982 -8.132735 -4.037035 -18.331861 34.180877 1.272474 -18.702932 -18.733056 4.821464 -3.324679 -16.976347 -28.841031 20.967320 57.459740 0.012890 10.457240 -17.827150 -18.559504 -12.165906 4.039802 -4.474763 -14.278205 -0.747289 13.927686 -5.886604 -1.514194 -3.773771 2.180619 1.176610 -0.236660 0.412630 0.108520 13.221919 5.569768 9.789657 23.184264 -29.756188 -7.354306 -24.368315 14.813847 0.372472 2.458266 -0.849103 -0.370950 0.424530 0.167330 -0.279430 
3.445430 16.006420 -0.972280 3.178269 10.821131 -14.790981 -15.355497 14.950183 3.812914 11.739764 -6.892176 19.254993 -9.698352 10.902570 24.246427 0.365506 8.527713 1.736606 0.139800 -0.235300 0.250130 17.834017 -10.452929 2.427236 14.000852 -4.934765 -33.020650 -36.778378 2.411561 33.352003 -1.230946 -5.978330 2.250251 -0.183610 0.071270 0.183520 -2.906580 -5.855704 -8.174540 -4.126997 -18.714769 32.058413 0.812597 -18.866224 -20.628117 5.013912 -2.962777 -16.548914 -26.297545 19.864690 61.353328 -0.164680 10.206070 -17.285470 -18.280735 -10.385084 4.008789 -4.839560 -10.098734 -0.808224 16.525324 -4.025736 -1.383072 -3.842392 2.102163 1.215990 -0.233070 0.407720 0.077760 12.317709 4.295437 9.398503 23.132030 -26.138782 -6.324800 -23.277162 8.235684 1.420010 2.523520 -0.698185 -0.408580 0.441720 0.194540 -0.317710 
3.441560 15.998830 -0.848990 3.188576 12.439876 -12.510828 -15.337493 14.862269 3.640731 12.289075 -5.835729 17.591202 -8.934248 10.614030 23.668547 0.304481 8.246367 1.841894 0.121800 -0.243110 0.195810 17.869557 -10.315983 2.747036 13.142344 -2.538780 -34.276262 -35.537900 3.468988 36.912248 -1.233845 -6.304907 2.177984 -0.176570 0.108300 0.149900 -3.009077 -5.695058 -8.279368 -1.236685 -18.869683 29.166804 -0.774476 -17.725409 -23.068814 5.098167 -3.849407 -15.509846 -25.908010 17.929093 60.600936 -0.006690 7.898500 -15.391510 -16.763582 -7.116377 3.404600 -5.185827 -5.296404 -0.398498 14.678076 -3.698270 -1.062006 -3.820542 2.092670 1.160970 -0.208480 0.350550 0.093100 10.517225 2.930748 8.894922 23.144706 -22.137825 -5.703803 -23.538852 3.882842 2.123078 2.583720 -0.670673 -0.413500 0.456740 0.201420 -0.291870 
3.444370 16.014780 -0.756470 2.920982 15.722070 -11.731464 -15.341802 14.955589 3.509749 13.117106 -5.125286 16.334099 -7.121293 10.001094 23.499661 0.274485 7.930801 1.935679 0.160790 -0.198600 0.188340 17.844137 -10.359759 2.810793 10.883604 -1.546622 -33.908266 -32.423543 3.337430 40.783499 -1.261960 -6.471546 2.101705 -0.174620 0.085430 0.194770 -3.061919 -5.645472 -8.223470 0.701246 -19.171547 28.449109 -1.419855 -17.022750 -24.592655 5.121235 -4.555325 -14.902266 -25.986818 17.472167 60.516929 -0.269260 7.123920 -15.345020 -15.538917 -4.572802 3.274234 -4.900686 0.966616 -0.464634 11.384114 -8.593850 -0.965553 -3.679364 2.245839 1.140130 -0.224910 0.375330 0.118310 8.981630 1.964740 8.316274 22.712502 -18.252835 -5.185952 -24.289472 -1.108643 3.099741 2.695249 -0.699732 -0.351540 0.402590 0.177660 -0.260050 
3.470020 16.045390 -0.656620 1.915705 18.631697 -11.332108 -15.372756 15.032044 3.468866 14.524917 -4.483316 15.642932 -6.588776 9.746633 22.106057 0.225662 7.720460 1.993729 0.208910 -0.145590 0.216320 17.794315 -10.288648 2.922904 9.211822 -0.175926 -32.629842 -27.976123 2.468379 45.619755 -1.305610 -6.655714 2.044260 -0.151460 0.042630 0.195100 -3.030946 -5.693221 -8.276424 3.293012 -18.710489 27.651770 -2.147063 -15.375476 -25.322818 5.283418 -4.714975 -14.294292 -25.095987 16.149512 63.159020 -0.486020 5.362070 -16.848600 -17.087997 -2.657017 2.435642 -3.825826 5.262429 -0.500794 12.424131 -8.974127 -0.885776 -3.631392 2.251678 1.161800 -0.261080 0.408430 0.127470 9.757265 1.557460 8.423460 19.702291 -17.867482 -4.771637 -23.679383 1.329094 2.488100 2.634991 -0.702768 -0.329330 0.405380 0.152220 -0.258400 
3.501180 16.049960 -0.558550 0.152637 21.461187 -10.960489 -15.405166 15.181471 3.331873 16.836207 -4.273109 14.720053 -4.354466 9.124662 21.486771 0.153841 7.505042 2.064581 0.202390 -0.159960 0.182930 17.748325 -10.126213 3.093938 8.414940 1.293137 -31.621054 -24.765583 1.565597 46.676623 -1.239071 -6.453687 2.115604 -0.155540 0.036080 0.177240 -3.002854 -5.965305 -8.256939 7.293683 -18.210672 27.294168 -3.210868 -13.116084 -26.267439 5.546598 -5.594275 -13.531040 -26.259989 14.139979 62.337878 0.352470 1.521640 -18.899450 -15.651233 0.443195 1.119561 -5.434203 5.457393 -0.428250 11.431223 -7.102062 -0.811332 -3.617137 2.220974 1.167290 -0.296050 0.393220 0.125290 7.645465 0.551471 8.623750 19.307421 -18.768479 -5.072939 -23.281652 6.185951 1.752936 2.556404 -0.711788 -0.328360 0.419240 0.168280 -0.242500 
3.538410 16.053870 -0.448920 -0.264386 24.218648 -7.967576 -15.422669 15.254862 3.106643 17.335311 -3.473278 11.446201 -2.592702 8.410838 21.379277 0.115557 7.078093 2.256311 0.111730 -0.250410 0.065210 17.738301 -9.930348 3.408732 6.679689 3.482725 -33.291093 -20.853975 0.548076 48.201270 -1.092403 -6.354579 2.177824 -0.204400 0.124760 0.148250 -3.075593 -6.091500 -8.314182 11.535850 -17.389048 25.058214 -4.687109 -10.658827 -29.124025 5.693444 -7.033574 -12.857964 -26.799378 10.854179 57.669264 0.262170 -2.089870 -16.112420 -12.116908 4.609703 -0.126184 -7.181638 6.462168 -0.476972 6.020776 -2.784399 -0.734269 -3.690519 2.215257 1.053330 -0.247980 0.289460 0.147850 3.508874 -0.423537 8.682085 18.241168 -16.868288 -4.654138 -21.369004 7.883268 1.575283 2.560072 -0.739526 -0.331540 0.412230 0.190930 -0.178150 
3.580490 16.074280 -0.382440 -1.019326 26.970584 -7.302414 -15.459115 15.399417 2.989633 18.344952 -2.900533 9.138863 -1.137215 7.956820 21.729927 0.061477 6.846660 2.338459 0.093670 -0.285810 0.054630 17.673043 -9.878902 3.534443 4.409041 4.740233 -32.910813 -16.501260 -1.134791 49.706827 -1.036348 -6.340167 2.196522 -0.228010 0.124810 0.150330 -3.033428 -6.141417 -8.414414 13.191911 -15.843500 24.324846 -4.999267 -8.421777 -28.685474 5.852403 -6.830485 -13.002510 -24.361685 8.038676 58.070159 -1.279360 -3.691930 -15.274130 -11.963801 5.564762 0.013411 -7.596153 11.640162 -0.753841 7.527419 -5.572223 -0.568581 -3.658095 2.255586 1.036900 -0.237810 0.269220 0.153330 2.444793 0.458237 8.955708 17.528597 -15.192058 -4.542531 -22.295918 7.504634 1.528219 2.549287 -0.785181 -0.330380 0.389360 0.185230 -0.176280 
3.631490 16.123990 -0.313140 -1.892599 30.354155 -8.012722 -15.475258 15.571385 2.972171 19.171549 -2.408292 8.410193 0.913225 7.241229 21.183905 0.022776 6.564124 2.403558 0.137920 -0.218940 0.103310 17.587541 -10.014076 3.508176 2.080370 5.149927 -30.751232 -11.188343 -3.513106 49.628155 -1.006204 -6.169610 2.245424 -0.208060 0.042940 0.157220 -3.030901 -6.019070 -8.492006 14.867893 -14.601673 22.983627 -6.591987 -6.690746 -27.387635 6.530081 -5.284151 -13.773547 -19.971634 5.181908 64.479425 -4.160340 -5.271620 -15.282550 -12.698754 4.666290 0.686296 -6.615782 16.373003 -0.623278 8.940109 -8.658846 -0.430395 -3.583688 2.266483 1.045820 -0.270590 0.331260 0.146110 1.078256 2.271760 9.585594 19.082118 -13.012036 -4.981951 -25.930094 9.408090 1.030399 2.494755 -0.845682 -0.286150 0.375130 0.152310 -0.179340 
